<svg xmlns="http://www.w3.org/2000/svg" width="100" height="100" viewBox="0 0 26.458 26.458"><text style="line-height:125%;-inkscape-font-specification:'Brandon Text Bold';text-align:center" x="13.494" y="8.467" font-weight="700" font-size="9.878" font-family="Brandon Text" letter-spacing="0" word-spacing="0" text-anchor="middle" stroke-width=".265"/><path d="M10.092 7.396a.466.466 0 0 0-.08.004c-.331.041-.933.427-1.807 1.155a7.445 7.445 0 0 0-2.046 2.65c-.48 1-.68 1.896-.603 2.69v5.948h6.615V13.23H8.244c-.13-.48-.196-1.026-.217-1.188-.045-.362.087-.898.397-1.608.31-.71.88-1.438 1.71-2.182.199-.172.29-.33.271-.475-.03-.244-.135-.371-.313-.38zM18.516 7.396a.471.471 0 0 0-.08.004c-.33.041-.933.427-1.807 1.155a7.445 7.445 0 0 0-2.046 2.65c-.48 1-.68 1.896-.603 2.69v5.948h6.615V13.23h-3.926c-.13-.48-.197-1.026-.217-1.188-.046-.362.087-.898.396-1.608.31-.71.88-1.438 1.71-2.182.2-.172.29-.33.272-.475-.031-.244-.136-.371-.314-.38z"/></svg>