<svg xmlns="http://www.w3.org/2000/svg" width="100" height="100" viewBox="0 0 26.458 26.458"><path style="line-height:normal;font-variant-ligatures:normal;font-variant-position:normal;font-variant-caps:normal;font-variant-numeric:normal;font-variant-alternates:normal;font-feature-settings:normal;text-indent:0;text-align:start;text-decoration-line:none;text-decoration-style:solid;text-decoration-color:#000;text-transform:none;text-orientation:mixed;white-space:normal;shape-padding:0;isolation:auto;mix-blend-mode:normal;solid-color:#000;solid-opacity:1" d="M2.646 4.498A2.13 2.13 0 00.529 6.614v13.23a2.13 2.13 0 002.117 2.116h21.166a2.13 2.13 0 002.117-2.117V6.614a2.13 2.13 0 00-2.117-2.116H2.646zm0 1.587h21.166c.307 0 .53.223.53.53v11.641l-5.821-7.673-6.615 6.615-5.291-2.646-4.234 5.556v.198a.51.51 0 01-.264-.463V6.614c0-.306.222-.529.529-.529zm3.717.552l-.812 1.758-1.666-.987.67 1.817-1.877.482 1.76.813-.989 1.666 1.817-.67.482 1.877.813-1.76 1.666.988-.59-1.602-.08-.216 1.876-.48-1.76-.813.989-1.666-1.817.67-.482-1.877z" color="#000" font-weight="400" font-family="sans-serif" overflow="visible"/></svg>