<svg xmlns="http://www.w3.org/2000/svg" width="100" height="100" viewBox="0 0 26.458 26.458"><path style="line-height:125%;-inkscape-font-specification:'Brandon Text Bold';text-align:center" d="M4.285 5.984c-.153-.01-.286.19-.286.508V8.8c0 .107.063.319.126.372l3.019 2.999-3.019 2.892c-.063.054-.126.266-.126.372v2.308c0 .425.237.637.442.425l5.531-5.44c.08-.08.159-.292.159-.451v-.133c0-.159-.08-.371-.159-.45L4.441 6.066a.242.242 0 00-.156-.083zM11.09 18.43c-.294 0-.507.261-.507.62v1.668c0 .327.213.588.507.588h9.573c.293 0 .507-.261.507-.588V19.05c0-.36-.214-.621-.507-.621H11.09z" font-weight="700" font-size="22.577" font-family="Brandon Text" letter-spacing="0" word-spacing="0" text-anchor="middle"/></svg>