<svg xmlns="http://www.w3.org/2000/svg" width="100" height="100" viewBox="0 0 26.458 26.458"><path style="line-height:normal;font-variant-ligatures:normal;font-variant-position:normal;font-variant-caps:normal;font-variant-numeric:normal;font-variant-alternates:normal;font-feature-settings:normal;text-indent:0;text-align:start;text-decoration-line:none;text-decoration-style:solid;text-decoration-color:#000;text-transform:none;text-orientation:mixed;white-space:normal;shape-padding:0;isolation:auto;mix-blend-mode:normal;solid-color:#000;solid-opacity:1" d="M5.036 13.797c-2.316 2.316-2.316 6.103 0 8.42 2.315 2.315 6.103 2.315 8.418 0l.655-.655 1.871-1.872a1.323 1.323 0 0 0-1.871-1.871l-1.872 1.871-.654.655a3.27 3.27 0 0 1-4.676 0 3.27 3.27 0 0 1 0-4.676l.654-.655.936-.936.936-.936a1.323 1.323 0 0 0-1.871-1.87l-.936.935-.936.936zm5.706-5.706a1.323 1.323 0 0 0 1.872 1.871l1.871-1.871.655-.655a3.27 3.27 0 0 1 4.676 0 3.27 3.27 0 0 1 0 4.676l-.655.655-.936.936-.935.935a1.323 1.323 0 0 0 1.871 1.872l.935-.936.937-.936.654-.654c2.316-2.316 2.316-6.103 0-8.42-2.316-2.315-6.103-2.315-8.419 0l-.654.655zm-1.416 7.993a1.323 1.323 0 1 0 1.871 1.871l5.988-5.987a1.323 1.323 0 1 0-1.872-1.872z" color="#000" font-weight="400" font-family="sans-serif" overflow="visible"/></svg>