<svg xmlns="http://www.w3.org/2000/svg" width="100" height="100" viewBox="0 0 26.458 26.458"><path d="M16.324 16.416a.466.466 0 00.08-.004c.33-.041.933-.427 1.807-1.155a7.445 7.445 0 002.046-2.65c.48-1 .68-1.896.603-2.69V3.969h-6.615v6.613h3.927c.13.48.196 1.026.217 1.188.045.362-.087.898-.397 1.608-.31.71-.88 1.438-1.71 2.182-.2.172-.29.33-.271.475.03.244.135.37.313.38zm-8.424 0a.471.471 0 00.08-.004c.33-.041.933-.427 1.807-1.155a7.445 7.445 0 002.046-2.65c.48-1 .68-1.896.603-2.69V3.969H5.82v6.613h3.926c.13.48.197 1.026.217 1.188.046.362-.087.898-.396 1.608-.31.71-.88 1.438-1.71 2.182-.2.172-.29.33-.272.475.03.244.136.37.314.38z"/></svg>