<svg xmlns="http://www.w3.org/2000/svg" width="100" height="100" viewBox="0 0 26.458 26.458"><path style="line-height:125%;-inkscape-font-specification:'Arial Bold';text-align:center" d="M12.893 2.326c-1.621 0-3.008.245-4.159.734-1.141.49-2.019 1.204-2.633 2.144a5.418 5.418 0 00-.906 3.007c0 1.182.327 2.237.977 3.164h10.38a31.677 31.677 0 00-2.739-.761c-2.071-.49-3.376-.96-3.913-1.41-.423-.355-.633-.782-.633-1.28 0-.547.225-.984.676-1.31.7-.508 1.669-.763 2.906-.763 1.2 0 2.096.24 2.69.72.605.47.998 1.247 1.18 2.33l4.26-.186c-.067-1.938-.772-3.487-2.115-4.648-1.334-1.16-3.324-1.74-5.971-1.74zm2.83 13.286c.53.226.92.481 1.155.771.297.346.446.768.446 1.267 0 .777-.35 1.457-1.05 2.043-.69.575-1.722.863-3.094.863-1.295 0-2.326-.326-3.093-.978-.758-.652-1.261-1.674-1.51-3.065l-4.145.403c.278 2.36 1.132 4.158 2.561 5.396 1.43 1.227 3.477 1.841 6.144 1.841 1.832 0 3.362-.254 4.59-.762 1.228-.518 2.177-1.305 2.849-2.36.671-1.055 1.007-2.187 1.007-3.396 0-.742-.091-1.415-.267-2.023h-5.593z" font-weight="700" font-family="Arial" letter-spacing="0" word-spacing="0" text-anchor="middle"/><rect ry=".122" y="12.351" x="2.957" height="2.323" width="20.431" stroke="#000" stroke-width=".32" stroke-linecap="square"/></svg>