<svg xmlns="http://www.w3.org/2000/svg" width="100" height="100" viewBox="0 0 26.458 26.458"><path style="line-height:normal;font-variant-ligatures:normal;font-variant-position:normal;font-variant-caps:normal;font-variant-numeric:normal;font-variant-alternates:normal;font-feature-settings:normal;text-indent:0;text-align:start;text-decoration-line:none;text-decoration-style:solid;text-decoration-color:#000;text-transform:none;text-orientation:mixed;white-space:normal;shape-padding:0;isolation:auto;mix-blend-mode:normal;solid-color:#000;solid-opacity:1" d="M2.646 4.498A2.13 2.13 0 0 0 .53 6.615v13.228a2.13 2.13 0 0 0 2.117 2.118h21.167a2.131 2.131 0 0 0 2.117-2.117V6.614a2.13 2.13 0 0 0-2.117-2.117H2.646zm-.529 4.816h6.35v4.44h-6.35v-4.44zm7.938 0h6.35v4.44h-6.35v-4.44zm7.937 0h6.35v4.44h-6.35v-4.44zM2.117 15.35h6.35v5.023h-5.82a.512.512 0 0 1-.53-.53V15.35zm7.938 0h6.35v5.023h-6.35V15.35zm7.937 0h6.35v4.494c0 .306-.222.53-.53.53h-5.82V15.35z" color="#000" font-weight="400" font-family="sans-serif" overflow="visible"/></svg>