<svg xmlns="http://www.w3.org/2000/svg" width="100" height="100" viewBox="0 0 26.458 26.458"><path d="M12.17 3.44l-1.552.335.579 2.675c-.797.19-1.565.467-2.296.804l-1.33-2.352-1.383.78 1.31 2.313a19.391 19.391 0 00-2.24 1.557L3.525 7.435 2.297 8.44l1.759 2.15c-1.542 1.42-2.469 2.638-2.469 2.638s5.33 7.13 11.907 7.13c6.575 0 11.906-7.13 11.906-7.13s-.878-1.153-2.345-2.524l1.637-2-1.23-1.006-1.6 1.959a20.133 20.133 0 00-1.868-1.354l1.334-2.358-1.38-.78-1.33 2.346a13.168 13.168 0 00-2.29-.92l.588-2.72-1.553-.336-.587 2.723a9.511 9.511 0 00-1.282-.09c-.245 0-.487.013-.728.032zm1.324 5.07a4.753 4.753 0 110 9.507 4.753 4.753 0 010-9.506zm0 2.244a2.51 2.51 0 10-.001 5.02 2.51 2.51 0 000-5.02z" fill-rule="evenodd"/></svg>