<svg xmlns="http://www.w3.org/2000/svg" width="100" height="100" viewBox="0 0 26.458 26.458"><path d="M14.787 22.99l1.554-.33-.568-2.676c.797-.188 1.567-.46 2.299-.795l1.322 2.358 1.385-.776-1.3-2.317a19.39 19.39 0 0 0 2.245-1.549l1.725 2.125 1.232-1.001-1.75-2.157c1.548-1.415 2.479-2.628 2.479-2.628s-5.301-7.152-11.877-7.178c-6.576-.027-11.935 7.081-11.935 7.081s.873 1.157 2.334 2.534l-1.644 1.994 1.225 1.01 1.609-1.952c.567.465 1.191.929 1.861 1.36L5.64 20.447l1.378.787 1.338-2.341c.724.373 1.49.692 2.287.928l-.6 2.718 1.552.343.598-2.72c.421.058.849.093 1.282.094a9.3 9.3 0 0 0 .728-.028z" fill-rule="evenodd"/></svg>